<?xml version="1.0" encoding="UTF-8" standalone="no" ?>
<!DOCTYPE svg PUBLIC "-//W3C//DTD SVG 1.1//EN" "http://www.w3.org/Graphics/SVG/1.1/DTD/svg11.dtd">
<svg xmlns="http://www.w3.org/2000/svg" version="1.1" width="500" height="500" viewBox="0 0 500 500"
     xml:space="preserve">
<desc>Created with Fabric.js 5.3.0</desc>
<defs>
</defs>
<g transform="matrix(3.163577807 0 0 3.1635775652 249.2810607454 249.2810607454)" id="8d0AoSrs2Fwi95ro_S6u5"  >
<path style="stroke: rgb(0,0,0); stroke-opacity: 0.48; stroke-width: 2; stroke-dasharray: none; stroke-linecap: butt; stroke-dashoffset: 0; stroke-linejoin: miter; stroke-miterlimit: 4; fill: none; fill-rule: nonzero; opacity: 1;" vector-effect="non-scaling-stroke"  transform=" translate(0, 0)" d="M 0 -78.70371 C 43.44445 -78.70371 78.70371 -43.44445 78.70371 0 C 78.70371 43.44445 43.44445 78.70371 0 78.70371 C -43.44445 78.70371 -78.70371 43.44445 -78.70371 0 C -78.70371 -43.44445 -43.44445 -78.70371 0 -78.70371 z" stroke-linecap="round" />
</g>
<g transform="matrix(3.9513967098 0 0 13.7656640641 249.2810607454 249.2810607454)" id="Z5jLhg3H1RUA_HA6hiqII"  >
<path style="stroke: rgb(0,0,0); stroke-opacity: 0.48; stroke-width: 0; stroke-dasharray: none; stroke-linecap: butt; stroke-dashoffset: 0; stroke-linejoin: miter; stroke-miterlimit: 4; fill: rgb(3, 202, 252); fill-rule: nonzero; opacity: 1;" vector-effect="non-scaling-stroke"  transform=" translate(0, 0)" d="M -9.4518 -7.65325 C -9.4518 -8.64656 -6.64655 -9.4518 -3.18611 -9.4518 L 3.9027699999999994 -9.4518 L 3.9027699999999994 -9.4518 C 6.967409999999999 -9.4518 9.451789999999999 -8.73867 9.451789999999999 -7.85897 L 9.451789999999999 7.653239999999999 L 9.451789999999999 7.653239999999999 C 9.451789999999999 8.64655 6.646539999999999 9.451789999999999 3.186099999999999 9.451789999999999 L -3.902780000000001 9.451789999999999 L -3.902780000000001 9.451789999999999 C -6.967420000000001 9.451789999999999 -9.4518 8.73866 -9.4518 7.858959999999999 z" stroke-linecap="round" />
</g>
<g transform="matrix(0 3.9513964077 -13.7656651164 0 249.2810574215 249.2810491656)" id="OeNXxxlZPUou6OeqWxLHZ"  >
<path style="stroke: rgb(0,0,0); stroke-opacity: 0.48; stroke-width: 0; stroke-dasharray: none; stroke-linecap: butt; stroke-dashoffset: 0; stroke-linejoin: miter; stroke-miterlimit: 4; fill: rgb(3, 202, 252); fill-rule: nonzero; opacity: 1;" vector-effect="non-scaling-stroke"  transform=" translate(0, 0)" d="M -9.4518 -7.65325 C -9.4518 -8.13026 -8.79167 -8.58772 -7.61662 -8.92502 C -6.4415700000000005 -9.26231 -4.84787 -9.4518 -3.18611 -9.4518 L 3.9027699999999994 -9.4518 L 3.9027699999999994 -9.4518 C 6.967409999999999 -9.4518 9.451789999999999 -8.73867 9.451789999999999 -7.85897 L 9.451789999999999 7.653239999999999 L 9.451789999999999 7.653239999999999 C 9.451789999999999 8.64655 6.646539999999999 9.451789999999999 3.186099999999999 9.451789999999999 L -3.902780000000001 9.451789999999999 L -3.902780000000001 9.451789999999999 C -5.3744700000000005 9.451789999999999 -6.78589 9.283969999999998 -7.826530000000001 8.985259999999998 C -8.867170000000002 8.686549999999999 -9.4518 8.281399999999998 -9.4518 7.858959999999998 z" stroke-linecap="round" />
</g>
</svg>